<?xml version="1.0" encoding="UTF-8" standalone="no"?>
<!-- Created with Inkscape (http://www.inkscape.org/) -->

<svg
   xmlns:dc="http://purl.org/dc/elements/1.1/"
   xmlns:cc="http://creativecommons.org/ns#"
   xmlns:rdf="http://www.w3.org/1999/02/22-rdf-syntax-ns#"
   xmlns:svg="http://www.w3.org/2000/svg"
   xmlns="http://www.w3.org/2000/svg"
   xmlns:sodipodi="http://sodipodi.sourceforge.net/DTD/sodipodi-0.dtd"
   xmlns:inkscape="http://www.inkscape.org/namespaces/inkscape"
   width="21.12278mm"
   height="21.529921mm"
   viewBox="0 0 21.12278 21.529921"
   version="1.1"
   id="svg8"
   inkscape:version="0.92.3 (2405546, 2018-03-11)"
   sodipodi:docname="Stockholm School Of Economics Logo.svg">
  <defs
     id="defs2">
    <clipPath
       id="clipPath850"
       clipPathUnits="userSpaceOnUse">
      <path
         inkscape:connector-curvature="0"
         id="path848"
         d="M 0,0 H 595.275 V 841.89 H 0 Z" />
    </clipPath>
    <clipPath
       id="clipPath864"
       clipPathUnits="userSpaceOnUse">
      <path
         inkscape:connector-curvature="0"
         id="path862"
         d="M 0,0 H 595.276 V 841.89 H 0 Z" />
    </clipPath>
    <clipPath
       id="clipPath872"
       clipPathUnits="userSpaceOnUse">
      <path
         inkscape:connector-curvature="0"
         id="path870"
         d="M -9.50397,851.394 H 604.78 V 419.945 H -9.50397 Z" />
    </clipPath>
    <clipPath
       id="clipPath876"
       clipPathUnits="userSpaceOnUse">
      <path
         inkscape:connector-curvature="0"
         id="path874"
         d="M -32768,32767 H 32767 V -32768 H -32768 Z" />
    </clipPath>
    <linearGradient
       id="linearGradient884"
       spreadMethod="pad"
       gradientTransform="matrix(0,-429.44882,-429.44882,0,603.77951,850.39355)"
       gradientUnits="userSpaceOnUse"
       y2="0"
       x2="1"
       y1="0"
       x1="0">
      <stop
         id="stop878"
         offset="0"
         style="stop-opacity:1;stop-color:#ffffff" />
      <stop
         id="stop880"
         offset="0.67491304"
         style="stop-opacity:1;stop-color:#ffffff" />
      <stop
         id="stop882"
         offset="1"
         style="stop-opacity:0;stop-color:#ffffff" />
    </linearGradient>
    <mask
       id="mask886"
       height="1"
       width="1"
       y="0"
       x="0"
       maskUnits="userSpaceOnUse">
      <g
         id="g896">
        <g
           id="g894"
           clip-path="url(#clipPath876)">
          <g
             id="g892">
            <g
               id="g890">
              <path
                 inkscape:connector-curvature="0"
                 id="path888"
                 style="fill:url(#linearGradient884);stroke:none"
                 d="M -32768,32767 H 32767 V -32768 H -32768 Z" />
            </g>
          </g>
        </g>
      </g>
    </mask>
    <clipPath
       id="clipPath900"
       clipPathUnits="userSpaceOnUse">
      <path
         inkscape:connector-curvature="0"
         id="path898"
         d="M -9.50397,851.394 H 604.78 V 419.945 H -9.50397 Z" />
    </clipPath>
    <clipPath
       id="clipPath942"
       clipPathUnits="userSpaceOnUse">
      <path
         inkscape:connector-curvature="0"
         id="path940"
         d="M 0,0 H 595.276 V 841.89 H 0 Z" />
    </clipPath>
    <clipPath
       id="clipPath1026"
       clipPathUnits="userSpaceOnUse">
      <path
         inkscape:connector-curvature="0"
         id="path1024"
         d="m 267.7,267.789 h 59.876 v 61.03 H 267.7 Z" />
    </clipPath>
  </defs>
  <sodipodi:namedview
     id="base"
     pagecolor="#ffffff"
     bordercolor="#666666"
     borderopacity="1.0"
     inkscape:pageopacity="0.0"
     inkscape:pageshadow="2"
     inkscape:zoom="5.6"
     inkscape:cx="13.977653"
     inkscape:cy="35.31127"
     inkscape:document-units="mm"
     inkscape:current-layer="layer1"
     showgrid="false"
     fit-margin-top="0"
     fit-margin-left="0"
     fit-margin-right="0"
     fit-margin-bottom="0"
     inkscape:window-width="1920"
     inkscape:window-height="1016"
     inkscape:window-x="0"
     inkscape:window-y="27"
     inkscape:window-maximized="1" />
  <metadata
     id="metadata5">
    <rdf:RDF>
      <cc:Work
         rdf:about="">
        <dc:format>image/svg+xml</dc:format>
        <dc:type
           rdf:resource="http://purl.org/dc/dcmitype/StillImage" />
        <dc:title></dc:title>
      </cc:Work>
    </rdf:RDF>
  </metadata>
  <g
     inkscape:label="Layer 1"
     inkscape:groupmode="layer"
     id="layer1"
     transform="translate(-420.33139,-352.93455)">
    <g
       id="g1020"
       transform="matrix(0.35277777,0,0,-0.35277777,325.89278,468.93455)">
      <g
         id="g1022"
         clip-path="url(#clipPath1026)">
        <g
           id="g1028"
           transform="translate(301.7321,317.5807)">
          <path
             d="M 0,0 C -0.08,0.607 -0.449,1.319 -0.684,1.659 -1.865,3.102 -3.269,3.572 -4.927,3.364 -6.601,3.157 -7.968,1.603 -8.416,0.079 -6.043,-1.406 -2.368,-1.534 0,0"
             style="fill:#231f20;fill-opacity:1;fill-rule:nonzero;stroke:none"
             id="path1030"
             inkscape:connector-curvature="0" />
        </g>
        <g
           id="g1032"
           transform="translate(291.6779,316.7579)">
          <path
             d="m 0,0 0.076,-0.088 c 0.537,-0.35 1.026,-0.684 1.598,-0.936 3.035,-1.607 7.42,-1.209 10.018,0.945 C 11.284,0.09 10.859,0.275 10.417,0.312 8.004,-1.303 4.181,-1.329 1.686,0.158 1.424,0.226 1.296,0.49 1,0.476 Z"
             style="fill:#231f20;fill-opacity:1;fill-rule:nonzero;stroke:none"
             id="path1034"
             inkscape:connector-curvature="0" />
        </g>
        <g
           id="g1036"
           transform="translate(287.4286,314.3906)">
          <path
             d="m 0,0 c 0.359,-0.073 0.737,-0.081 1.084,0.059 0.965,0.62 1.993,1.14 2.989,1.661 L 3.353,1.85 C 2.101,1.597 1.015,0.668 0,0"
             style="fill:#231f20;fill-opacity:1;fill-rule:nonzero;stroke:none"
             id="path1038"
             inkscape:connector-curvature="0" />
        </g>
        <g
           id="g1040"
           transform="translate(290.6877,314.0924)">
          <path
             d="M 0,0 C 0.73,0.379 1.445,0.823 2.127,1.252 1.881,1.274 1.705,1.474 1.425,1.414 0.465,1.041 -0.48,0.601 -1.297,-0.055 -0.873,-0.162 -0.414,-0.172 0,0"
             style="fill:#231f20;fill-opacity:1;fill-rule:nonzero;stroke:none"
             id="path1042"
             inkscape:connector-curvature="0" />
        </g>
        <g
           id="g1044"
           transform="translate(291.4497,313.6499)">
          <path
             d="M 0,0 C 1.142,-0.319 2.013,0.499 2.828,1.04 1.67,1.393 0.815,0.508 0,0"
             style="fill:#231f20;fill-opacity:1;fill-rule:nonzero;stroke:none"
             id="path1046"
             inkscape:connector-curvature="0" />
        </g>
        <g
           id="g1048"
           transform="translate(293.3477,313.3804)">
          <path
             d="M 0,0 C 0.962,-0.283 1.763,0.357 2.415,0.885 1.421,1.218 0.731,0.444 0,0"
             style="fill:#231f20;fill-opacity:1;fill-rule:nonzero;stroke:none"
             id="path1050"
             inkscape:connector-curvature="0" />
        </g>
        <g
           id="g1052"
           transform="translate(286.1477,313.5804)">
          <path
             d="m 0,0 c -1.201,-0.943 -2.385,-1.854 -3.491,-2.946 0.458,-0.059 0.952,0.029 1.287,0.35 1.169,0.96 2.423,2.05 3.637,2.862 C 0.926,0.325 0.384,0.32 0,0"
             style="fill:#231f20;fill-opacity:1;fill-rule:nonzero;stroke:none"
             id="path1054"
             inkscape:connector-curvature="0" />
        </g>
        <g
           id="g1056"
           transform="translate(294.9304,312.9369)">
          <path
             d="M 0,0 C 0.229,-0.021 0.524,-0.06 0.739,0.034 1.02,0.126 1.174,0.418 1.147,0.731 0.749,0.493 0.383,0.255 0,0"
             style="fill:#231f20;fill-opacity:1;fill-rule:nonzero;stroke:none"
             id="path1058"
             inkscape:connector-curvature="0" />
        </g>
        <g
           id="g1060"
           transform="translate(286.2586,311.8221)">
          <path
             d="M 0,0 C 0.327,-0.056 0.753,-0.098 1.067,-0.006 1.863,0.404 2.681,1.06 3.381,1.587 1.963,2.06 1.078,0.552 0,0"
             style="fill:#231f20;fill-opacity:1;fill-rule:nonzero;stroke:none"
             id="path1062"
             inkscape:connector-curvature="0" />
        </g>
        <g
           id="g1064"
           transform="translate(288.9667,311.8311)">
          <path
             d="M 0,0 0.294,-0.039 C 1.307,-0.257 1.967,0.664 2.682,1.142 L 1.895,1.175 C 1.105,1.076 0.632,0.397 0,0"
             style="fill:#231f20;fill-opacity:1;fill-rule:nonzero;stroke:none"
             id="path1066"
             inkscape:connector-curvature="0" />
        </g>
        <g
           id="g1068"
           transform="translate(293.058,312.8613)">
          <path
             d="m 0,0 c -0.721,0.081 -1.176,-0.5 -1.709,-0.883 0.865,-0.232 1.631,0.294 2.25,0.855 C 0.343,-0.056 0.197,0.012 0,0"
             style="fill:#231f20;fill-opacity:1;fill-rule:nonzero;stroke:none"
             id="path1070"
             inkscape:connector-curvature="0" />
        </g>
        <g
           id="g1072"
           transform="translate(295.2316,312.4383)">
          <path
             d="M 0,0 C -0.668,0.227 -1.297,-0.038 -1.782,-0.471 -1.117,-0.846 -0.499,-0.301 0,0"
             style="fill:#231f20;fill-opacity:1;fill-rule:nonzero;stroke:none"
             id="path1074"
             inkscape:connector-curvature="0" />
        </g>
        <g
           id="g1076"
           transform="translate(307.5883,301.6077)">
          <path
             d="m 0,0 c -0.424,0.107 -0.949,0.118 -1.268,-0.203 -0.447,-0.221 -0.146,-0.954 -0.806,-0.87 -0.105,-0.056 -0.463,-0.187 -0.501,-0.449 0.311,-0.039 0.653,-0.128 0.845,-0.411 0.269,0.355 0.637,0.676 1.098,0.715 0.658,0.102 1.225,-0.239 1.609,-0.756 0.251,0.258 0.547,0.301 0.797,0.476 C 1.6,-1.182 1.257,-1.109 0.896,-1.135 L 0.725,-0.688 C 0.599,-0.374 0.259,-0.17 0,0"
             style="fill:#231f20;fill-opacity:1;fill-rule:nonzero;stroke:none"
             id="path1078"
             inkscape:connector-curvature="0" />
        </g>
        <g
           id="g1080"
           transform="translate(310.8751,297.9121)">
          <path
             d="M 0,0 C 0.293,0.634 0.846,1.197 1.333,1.744 0.975,1.883 0.532,1.893 0.216,1.702 -0.316,1.352 -0.444,0.732 -0.392,0.107 l -0.767,0.164 c 0.087,0.244 0.174,0.471 0.18,0.767 C -1.075,1.155 -1.154,1.321 -1.334,1.341 -1.578,1.395 -1.826,1.335 -1.978,1.125 -2.179,0.948 -2.037,0.666 -2.139,0.488 -2.368,0.525 -2.615,0.498 -2.826,0.601 -2.72,0.976 -2.728,1.37 -3.001,1.671 -3.261,1.775 -3.471,1.96 -3.783,1.934 -4.079,1.874 -4.411,1.717 -4.565,1.425 -4.684,1.214 -4.657,0.935 -4.629,0.721 -4.908,0.71 -5.141,0.568 -5.418,0.639 -5.35,0.785 -5.412,0.95 -5.409,1.098 -5.502,1.33 -5.663,1.497 -5.908,1.535 -6.089,1.522 -6.271,1.444 -6.373,1.298 -6.51,1.039 -6.484,0.71 -6.324,0.477 -6.507,0.366 -6.722,0.305 -6.902,0.308 -6.845,0.669 -6.986,1 -7.061,1.329 c -0.254,0.416 -0.76,0.541 -1.254,0.47 0.491,-0.831 0.965,-1.694 1.274,-2.636 1.984,0.68 4.609,0.658 6.663,0.057 C -0.241,-0.52 -0.136,-0.243 0,0"
             style="fill:#231f20;fill-opacity:1;fill-rule:nonzero;stroke:none"
             id="path1082"
             inkscape:connector-curvature="0" />
        </g>
        <g
           id="g1084"
           transform="translate(310.0413,295.6975)">
          <path
             d="M 0,0 C 0.087,0.261 0.241,0.537 0.197,0.817 -1.694,1.381 -4.202,1.549 -6.054,0.849 -5.961,0.617 -6.017,0.29 -5.872,0.123 -4.04,0.61 -1.81,0.563 0,0"
             style="fill:#231f20;fill-opacity:1;fill-rule:nonzero;stroke:none"
             id="path1086"
             inkscape:connector-curvature="0" />
        </g>
        <g
           id="g1088"
           transform="translate(309.9842,294.5502)">
          <path
             d="M 0,0 C 0.102,0.162 -0.009,0.361 -0.138,0.462 -1.686,1.004 -3.719,1.079 -5.335,0.686 -5.452,0.623 -5.634,0.528 -5.67,0.381 -5.706,0.218 -5.645,0.036 -5.482,-0.049 -4.214,-0.634 -2.571,-0.521 -1.141,-0.403 -0.73,-0.362 -0.27,-0.355 0,0"
             style="fill:#231f20;fill-opacity:1;fill-rule:nonzero;stroke:none"
             id="path1090"
             inkscape:connector-curvature="0" />
        </g>
        <g
           id="g1092"
           transform="translate(286.2855,299.7068)">
          <path
             d="M 0,0 C 0.22,0.34 0.604,0.628 1.015,0.685 1.724,0.817 2.291,0.461 2.707,-0.024 L 3.155,0.18 C 3.288,0.26 3.485,0.272 3.505,0.452 3.298,0.752 2.955,0.808 2.61,0.815 2.548,1.013 2.52,1.211 2.376,1.378 2.089,1.778 1.667,2 1.174,1.994 0.796,1.953 0.432,1.813 0.244,1.456 0.043,1.263 0.131,0.769 -0.229,0.825 -0.476,0.765 -0.839,0.658 -0.862,0.363 -0.517,0.388 -0.242,0.186 0,0"
             style="fill:#231f20;fill-opacity:1;fill-rule:nonzero;stroke:none"
             id="path1094"
             inkscape:connector-curvature="0" />
        </g>
        <g
           id="g1096"
           transform="translate(292.6693,299.7209)">
          <path
             d="m 0,0 c -0.39,0.189 -0.916,0.134 -1.249,-0.089 -0.484,-0.383 -0.496,-0.958 -0.508,-1.548 -0.245,0.038 -0.49,0.125 -0.718,0.179 0.135,0.21 0.174,0.505 0.131,0.769 -0.112,0.15 -0.289,0.334 -0.503,0.322 -0.197,-0.045 -0.412,-0.107 -0.514,-0.301 -0.102,-0.162 -0.189,-0.39 -0.095,-0.573 -0.213,-0.028 -0.509,-0.005 -0.703,0.081 0.069,0.212 0.109,0.539 -0.018,0.755 -0.124,0.331 -0.499,0.47 -0.809,0.542 -0.296,-0.043 -0.592,-0.069 -0.794,-0.328 -0.169,-0.226 -0.308,-0.584 -0.183,-0.882 -0.263,-0.044 -0.528,-0.137 -0.806,-0.114 0.004,0.229 0.059,0.507 -0.101,0.691 -0.145,0.118 -0.306,0.253 -0.521,0.208 -0.165,-0.063 -0.348,-0.19 -0.401,-0.353 -0.12,-0.26 0.022,-0.541 0.083,-0.74 -0.197,-0.012 -0.348,-0.206 -0.561,-0.136 0.024,0.344 0.032,0.721 -0.159,1.004 -0.253,0.432 -0.777,0.525 -1.255,0.42 0.558,-0.799 0.949,-1.693 1.308,-2.587 2,0.68 4.627,0.74 6.665,0.14 C -1.346,-1.563 -0.787,-0.738 0,0"
             style="fill:#231f20;fill-opacity:1;fill-rule:nonzero;stroke:none"
             id="path1098"
             inkscape:connector-curvature="0" />
        </g>
        <g
           id="g1100"
           transform="translate(284.5628,296.5922)">
          <path
             d="m 0,0 -0.117,-0.112 0.182,-0.693 c 1.816,0.519 4.114,0.521 5.924,-0.026 0.055,0.262 0.208,0.537 0.148,0.801 C 4.262,0.584 1.867,0.584 0,0"
             style="fill:#231f20;fill-opacity:1;fill-rule:nonzero;stroke:none"
             id="path1102"
             inkscape:connector-curvature="0" />
        </g>
        <g
           id="g1104"
           transform="translate(290.532,294.8265)">
          <path
             d="m 0,0 c -0.11,0.248 -0.403,0.32 -0.648,0.407 -1.177,0.222 -2.52,0.348 -3.705,0.16 -0.496,-0.154 -1.323,-0.087 -1.392,-0.644 0.092,-0.281 0.386,-0.352 0.614,-0.456 1.553,-0.278 3.357,-0.349 4.826,0.096 C -0.139,-0.358 0.012,-0.197 0,0"
             style="fill:#231f20;fill-opacity:1;fill-rule:nonzero;stroke:none"
             id="path1106"
             inkscape:connector-curvature="0" />
        </g>
        <g
           id="g1108"
           transform="translate(297.4552,289.7128)">
          <path
             d="M 0,0 C 0.628,0.217 1.057,-0.079 1.476,-0.466 1.751,-1.046 1.798,-0.759 2.352,-0.541 2.212,-0.178 1.652,0.147 1.489,0.191 1.333,0.539 1.278,0.646 1.085,0.896 0.732,1.232 0.436,1.222 0.026,1.214 -0.582,1.178 -0.842,0.543 -0.983,0.053 -1.184,-0.123 -1.498,-0.231 -1.585,-0.459 l 0.519,-0.322 C -0.797,-0.442 -0.429,-0.122 0,0"
             style="fill:#231f20;fill-opacity:1;fill-rule:nonzero;stroke:none"
             id="path1110"
             inkscape:connector-curvature="0" />
        </g>
        <g
           id="g1112"
           transform="translate(302.7756,288.3055)">
          <path
             d="M 0,0 C 0.12,0.227 0.436,0.434 0.505,0.629 0.178,0.668 -0.166,0.693 -0.448,0.567 -1.155,0.467 -1.352,-0.3 -1.479,-0.888 l -0.751,0.18 c 0.022,0.294 0.012,0.59 -0.197,0.791 -0.162,0.118 -0.407,0.156 -0.605,0.095 -0.282,-0.141 -0.338,-0.436 -0.458,-0.695 -0.212,0.053 -0.493,-0.04 -0.687,0.08 0.056,0.326 0.047,0.687 -0.112,0.953 -0.193,0.168 -0.354,0.32 -0.617,0.325 -0.279,-0.01 -0.542,-0.071 -0.728,-0.296 -0.185,-0.243 -0.274,-0.553 -0.215,-0.882 -0.118,-0.162 -0.412,-0.09 -0.626,-0.118 -0.226,0.201 -0.054,0.559 -0.346,0.746 -0.128,0.134 -0.391,0.106 -0.556,0.06 -0.167,-0.095 -0.318,-0.256 -0.387,-0.435 -0.102,-0.161 0.024,-0.443 -0.11,-0.539 -1.014,-0.635 -0.253,0.834 -0.827,1.215 -0.107,0.372 -0.966,0.521 -1.379,0.398 0.59,-0.816 1.089,-1.704 1.298,-2.661 l 0.148,-0.003 c 2.365,0.902 5.375,0.445 7.743,-0.129 C -0.6,-1.202 -0.422,-0.533 0,0"
             style="fill:#231f20;fill-opacity:1;fill-rule:nonzero;stroke:none"
             id="path1114"
             inkscape:connector-curvature="0" />
        </g>
        <g
           id="g1116"
           transform="translate(301.5757,285.8691)">
          <path
             d="m 0,0 c -2.219,0.588 -4.956,0.777 -7.154,0.051 -0.411,-0.04 -0.025,-0.409 -0.062,-0.622 2.117,0.776 4.818,0.473 7.007,0.001 z"
             style="fill:#231f20;fill-opacity:1;fill-rule:nonzero;stroke:none"
             id="path1118"
             inkscape:connector-curvature="0" />
        </g>
        <g
           id="g1120"
           transform="translate(300.9352,284.2744)">
          <path
             d="M 0,0 C 0.069,0.13 0.056,0.327 -0.09,0.396 -0.495,0.633 -0.969,0.726 -1.461,0.752 -2.987,0.801 -4.672,1 -6.044,0.553 -6.21,0.458 -6.426,0.331 -6.349,0.084 c 0.322,-0.319 0.781,-0.313 1.206,-0.419 1.359,-0.095 2.804,-0.108 4.151,-0.038 C -0.63,-0.315 -0.252,-0.29 0,0"
             style="fill:#231f20;fill-opacity:1;fill-rule:nonzero;stroke:none"
             id="path1122"
             inkscape:connector-curvature="0" />
        </g>
        <g
           id="g1124"
           transform="translate(285.0966,308.271)">
          <path
             d="M 0,0 C 0.167,0.178 0.204,0.456 0.142,0.687 0.047,0.902 -0.182,0.971 -0.395,0.991 -0.592,0.945 -0.792,0.8 -0.844,0.588 -0.897,0.326 -0.836,0.079 -0.608,-0.056 -0.413,-0.158 -0.166,-0.145 0,0"
             style="fill:#231f20;fill-opacity:1;fill-rule:nonzero;stroke:none"
             id="path1126"
             inkscape:connector-curvature="0" />
        </g>
        <g
           id="g1128"
           transform="translate(282.5952,306.7679)">
          <path
             d="M 0,0 C 0.474,-0.106 0.905,0.133 1.189,0.457 1.457,0.797 1.465,1.322 1.29,1.719 1.163,1.983 0.872,2.251 0.578,2.321 0.088,2.476 -0.424,2.271 -0.741,1.898 -0.975,1.623 -0.949,1.196 -0.922,0.819 -0.781,0.422 -0.376,0.104 0,0"
             style="fill:#231f20;fill-opacity:1;fill-rule:nonzero;stroke:none"
             id="path1130"
             inkscape:connector-curvature="0" />
        </g>
        <g
           id="g1132"
           transform="translate(279.0328,305.6095)">
          <path
             d="M 0,0 C -0.41,-1.027 0.48,-1.845 0.646,-2.767 1.107,-1.576 1.618,-0.403 2.243,0.736 2.347,1.079 2.271,1.458 1.996,1.724 1.835,1.907 1.556,1.928 1.294,1.949 1.13,1.935 0.997,1.855 0.88,1.709 0.529,1.304 0.65,0.63 0.774,0.185 0.478,0.173 0.184,0.243 0,0"
             style="fill:#231f20;fill-opacity:1;fill-rule:nonzero;stroke:none"
             id="path1134"
             inkscape:connector-curvature="0" />
        </g>
        <g
           id="g1136"
           transform="translate(280.7767,302.7598)">
          <path
             d="M 0,0 C 0.612,0.302 1.528,0.157 1.819,0.923 1.939,1.217 1.696,1.45 1.651,1.697 2.176,1.672 2.656,1.928 2.876,2.4 2.881,2.695 2.919,3.039 2.643,3.224 2.321,3.606 1.664,3.567 1.315,3.294 0.445,2.241 -0.001,1.001 -0.431,-0.239 Z"
             style="fill:#231f20;fill-opacity:1;fill-rule:nonzero;stroke:none"
             id="path1138"
             inkscape:connector-curvature="0" />
        </g>
        <g
           id="g1140"
           transform="translate(278.2711,303.0947)">
          <path
             d="m 0,0 c -0.101,-0.146 -0.17,-0.342 -0.09,-0.507 0.08,-0.149 0.159,-0.315 0.355,-0.367 0.229,-0.085 0.411,0.059 0.594,0.171 0.15,0.195 0.155,0.49 0.011,0.689 C 0.661,0.269 0.201,0.243 0,0"
             style="fill:#231f20;fill-opacity:1;fill-rule:nonzero;stroke:none"
             id="path1142"
             inkscape:connector-curvature="0" />
        </g>
        <g
           id="g1144"
           transform="translate(281.9079,301.6592)">
          <path
             d="M 0,0 C 0.068,0.163 0.138,0.408 0.025,0.574 -0.103,0.789 -0.38,0.908 -0.643,0.863 -0.891,0.769 -0.976,0.54 -1.013,0.295 -0.984,0.048 -0.823,-0.135 -0.577,-0.204 -0.332,-0.257 -0.134,-0.162 0,0"
             style="fill:#231f20;fill-opacity:1;fill-rule:nonzero;stroke:none"
             id="path1146"
             inkscape:connector-curvature="0" />
        </g>
        <g
           id="g1148"
           transform="translate(278.4445,301.5823)">
          <path
             d="m 0,0 c -0.236,-0.407 -0.343,-0.963 -0.17,-1.425 0.205,-0.512 0.708,-0.881 1.266,-0.906 0.557,-0.041 1.021,0.263 1.339,0.668 0.22,0.44 0.295,1.046 0.04,1.476 C 2.267,0.161 1.959,0.396 1.616,0.516 1.012,0.69 0.401,0.486 0,0"
             style="fill:#231f20;fill-opacity:1;fill-rule:nonzero;stroke:none"
             id="path1150"
             inkscape:connector-curvature="0" />
        </g>
        <g
           id="g1152"
           transform="translate(280.2441,294.9742)">
          <path
             d="M 0,0 C 0.241,0.751 1.474,0.879 1.259,1.818 1.213,2.016 1.018,2.134 0.872,2.25 0.874,2.366 0.99,2.413 1.073,2.51 1.274,2.77 1.445,3.21 1.237,3.541 1.092,3.724 0.931,3.923 0.703,3.993 0.343,4.097 0.029,3.938 -0.189,3.662 -0.717,2.391 -0.233,0.857 -0.154,-0.425 Z"
             style="fill:#231f20;fill-opacity:1;fill-rule:nonzero;stroke:none"
             id="path1154"
             inkscape:connector-curvature="0" />
        </g>
        <g
           id="g1156"
           transform="translate(277.7149,296.917)">
          <path
             d="M 0,0 C -0.512,-1.255 1.124,-1.56 1.651,-2.504 1.657,-2.126 1.615,-1.617 1.507,-1.221 1.342,-0.218 1.59,0.943 1.111,1.804 0.916,1.938 0.706,2.089 0.426,2.061 0.228,1.982 -0.02,1.887 -0.154,1.676 -0.338,1.449 -0.295,1.088 -0.201,0.824 -0.238,0.529 0.611,0.27 0,0"
             style="fill:#231f20;fill-opacity:1;fill-rule:nonzero;stroke:none"
             id="path1158"
             inkscape:connector-curvature="0" />
        </g>
        <g
           id="g1160"
           transform="translate(281.1625,293.9097)">
          <path
             d="M 0,0 C 0.148,0.046 0.33,0.126 0.415,0.288 0.516,0.468 0.487,0.714 0.375,0.863 0.23,1.079 -0.063,1.182 -0.31,1.12 -0.591,0.994 -0.629,0.682 -0.617,0.387 -0.506,0.139 -0.262,0.004 0,0"
             style="fill:#231f20;fill-opacity:1;fill-rule:nonzero;stroke:none"
             id="path1162"
             inkscape:connector-curvature="0" />
        </g>
        <g
           id="g1164"
           transform="translate(278.2337,293.3976)">
          <path
             d="M 0,0 C 0.179,-0.118 0.375,-0.154 0.574,-0.058 0.805,0.069 0.875,0.364 0.814,0.627 0.75,0.743 0.638,0.892 0.507,0.927 0.344,0.979 0.179,0.933 0.031,0.902 -0.086,0.789 -0.22,0.643 -0.222,0.463 -0.192,0.299 -0.179,0.101 0,0"
             style="fill:#231f20;fill-opacity:1;fill-rule:nonzero;stroke:none"
             id="path1166"
             inkscape:connector-curvature="0" />
        </g>
        <g
           id="g1168"
           transform="translate(280.2643,291.0356)">
          <path
             d="M 0,0 C 0.558,-0.025 1.104,0.295 1.358,0.783 1.561,1.174 1.488,1.732 1.297,2.113 1.137,2.394 0.846,2.678 0.535,2.748 -0.004,2.921 -0.58,2.75 -0.948,2.361 -1.33,2.006 -1.406,1.351 -1.233,0.873 -1.028,0.345 -0.524,0.074 0,0"
             style="fill:#231f20;fill-opacity:1;fill-rule:nonzero;stroke:none"
             id="path1170"
             inkscape:connector-curvature="0" />
        </g>
        <g
           id="g1172"
           transform="translate(283.702,289.4882)">
          <path
             d="M 0,0 C -0.11,0.281 -0.373,0.285 -0.584,0.436 -0.448,0.729 -0.457,1.173 -0.6,1.47 -0.889,1.868 -1.563,1.813 -1.831,1.457 -2.031,1.263 -2.036,0.935 -1.991,0.672 -1.582,-0.434 -1.058,-1.542 -0.219,-2.458 -0.32,-1.586 0.2,-0.84 0,0"
             style="fill:#231f20;fill-opacity:1;fill-rule:nonzero;stroke:none"
             id="path1174"
             inkscape:connector-curvature="0" />
        </g>
        <g
           id="g1176"
           transform="translate(280.2018,288.1161)">
          <path
             d="M 0,0 C -0.102,-0.212 -0.023,-0.46 0.138,-0.626 0.902,-1.081 1.887,-1.064 2.668,-1.454 2.283,-0.939 1.88,-0.44 1.594,0.139 1.177,0.769 1.077,1.689 0.328,2.046 0.051,2.181 -0.214,2.005 -0.446,1.91 -0.663,1.667 -0.881,1.375 -0.722,1.045 -0.515,0.664 -0.158,0.38 0.284,0.34 0.216,0.177 0.036,0.163 0,0"
             style="fill:#231f20;fill-opacity:1;fill-rule:nonzero;stroke:none"
             id="path1178"
             inkscape:connector-curvature="0" />
        </g>
        <g
           id="g1180"
           transform="translate(284.3628,286.6231)">
          <path
             d="M 0,0 C 0.212,-0.086 0.459,-0.057 0.625,0.105 0.742,0.267 0.812,0.495 0.733,0.694 0.589,0.958 0.247,1.096 -0.018,0.984 -0.183,0.889 -0.349,0.793 -0.336,0.58 -0.34,0.317 -0.179,0.134 0,0"
             style="fill:#231f20;fill-opacity:1;fill-rule:nonzero;stroke:none"
             id="path1182"
             inkscape:connector-curvature="0" />
        </g>
        <g
           id="g1184"
           transform="translate(282.7974,285.1708)">
          <path
             d="M 0,0 C 0.229,-0.053 0.412,0.125 0.53,0.287 0.582,0.5 0.619,0.794 0.425,0.961 0.279,1.062 0.133,1.147 -0.064,1.117 -0.229,1.087 -0.362,0.974 -0.478,0.877 -0.546,0.731 -0.632,0.519 -0.519,0.386 -0.424,0.187 -0.23,0.004 0,0"
             style="fill:#231f20;fill-opacity:1;fill-rule:nonzero;stroke:none"
             id="path1186"
             inkscape:connector-curvature="0" />
        </g>
        <g
           id="g1188"
           transform="translate(285.4302,283.5543)">
          <path
             d="M 0,0 C 0.347,0.175 0.697,0.481 0.818,0.89 0.873,1.233 0.846,1.644 0.638,1.942 0.285,2.473 -0.418,2.665 -0.996,2.411 -1.408,2.27 -1.645,1.814 -1.75,1.422 -1.822,1.013 -1.647,0.666 -1.439,0.351 -1.084,-0.065 -0.543,-0.123 0,0"
             style="fill:#231f20;fill-opacity:1;fill-rule:nonzero;stroke:none"
             id="path1190"
             inkscape:connector-curvature="0" />
        </g>
        <g
           id="g1192"
           transform="translate(288.7349,282.9118)">
          <path
             d="M 0,0 C 0.569,-0.354 1.105,-0.691 1.642,-0.978 1.192,-0.347 1.37,0.519 0.937,1.15 0.679,1.433 0.336,1.52 -0.042,1.51 -0.169,1.742 -0.182,2.004 -0.359,2.221 -0.534,2.552 -0.86,2.721 -1.254,2.661 -1.486,2.566 -1.718,2.373 -1.788,2.145 -2.052,1.016 -0.747,0.488 0,0"
             style="fill:#231f20;fill-opacity:1;fill-rule:nonzero;stroke:none"
             id="path1194"
             inkscape:connector-curvature="0" />
        </g>
        <g
           id="g1196"
           transform="translate(287.4554,280.8644)">
          <path
             d="M 0,0 C 0.95,-0.114 1.667,0.581 2.503,0.567 2.081,0.837 1.527,1.125 1.04,1.444 0.308,1.849 -0.322,2.482 -1.207,2.562 -1.536,2.518 -1.785,2.292 -1.97,2.016 -2.039,1.82 -2.093,1.493 -1.932,1.31 -1.643,0.895 -1.068,0.919 -0.609,0.895 -0.566,0.517 -0.375,0.137 0,0"
             style="fill:#231f20;fill-opacity:1;fill-rule:nonzero;stroke:none"
             id="path1198"
             inkscape:connector-curvature="0" />
        </g>
        <g
           id="g1200"
           transform="translate(291.7561,281.9943)">
          <path
             d="M 0,0 C 0.117,0.146 0.12,0.359 0.091,0.556 -0.003,0.854 -0.296,0.973 -0.592,0.978 -0.757,0.931 -0.922,0.868 -1.006,0.705 -1.092,0.526 -1.128,0.297 -1.065,0.115 -0.985,-0.034 -0.839,-0.151 -0.693,-0.219 -0.415,-0.321 -0.184,-0.194 0,0"
             style="fill:#231f20;fill-opacity:1;fill-rule:nonzero;stroke:none"
             id="path1202"
             inkscape:connector-curvature="0" />
        </g>
        <g
           id="g1204"
           transform="translate(291.7233,279.9111)">
          <path
             d="m 0,0 c 0.259,-0.217 0.652,-0.289 0.982,-0.18 0.28,0.111 0.547,0.337 0.682,0.63 0.17,0.325 0.11,0.72 -0.065,1.035 C 1.342,1.882 0.854,2.136 0.376,1.996 -0.003,1.87 -0.319,1.613 -0.424,1.221 -0.546,0.731 -0.39,0.253 0,0"
             style="fill:#231f20;fill-opacity:1;fill-rule:nonzero;stroke:none"
             id="path1206"
             inkscape:connector-curvature="0" />
        </g>
        <g
           id="g1208"
           transform="translate(289.5514,280.5853)">
          <path
             d="m 0,0 c -0.036,-0.229 0.091,-0.461 0.269,-0.628 0.18,-0.019 0.342,-0.153 0.525,-0.041 0.197,0.013 0.331,0.208 0.383,0.388 0.07,0.245 -0.009,0.476 -0.17,0.643 C 0.845,0.495 0.648,0.515 0.419,0.518 0.22,0.439 -0.012,0.23 0,0"
             style="fill:#231f20;fill-opacity:1;fill-rule:nonzero;stroke:none"
             id="path1210"
             inkscape:connector-curvature="0" />
        </g>
        <g
           id="g1212"
           transform="translate(298.2752,280.1172)">
          <path
             d="M 0,0 C 0.87,0.785 1.514,1.79 2.043,2.746 1.797,2.768 1.568,2.74 1.385,2.662 0.941,1.818 0.351,1.075 -0.288,0.334 L -0.29,0.219 C -0.227,0.119 -0.097,0.067 0,0"
             style="fill:#231f20;fill-opacity:1;fill-rule:nonzero;stroke:none"
             id="path1214"
             inkscape:connector-curvature="0" />
        </g>
        <g
           id="g1216"
           transform="translate(295.8273,282.7894)">
          <path
             d="m 0,0 -0.606,0.078 c 0.467,-1.24 1.279,-2.438 2.227,-3.41 1.127,-1.025 2.34,-1.887 3.827,-2.181 C 3.138,-4.496 0.853,-2.381 0,0"
             style="fill:#231f20;fill-opacity:1;fill-rule:nonzero;stroke:none"
             id="path1218"
             inkscape:connector-curvature="0" />
        </g>
        <g
           id="g1220"
           transform="translate(298.2863,282.6886)">
          <path
             d="m 0,0 -1.378,0.029 -0.019,-0.935 c 0.174,-0.315 0.479,-0.634 0.72,-0.885 l 0.743,1.002 C 0.022,-0.526 0.11,-0.248 0,0"
             style="fill:#231f20;fill-opacity:1;fill-rule:nonzero;stroke:none"
             id="path1222"
             inkscape:connector-curvature="0" />
        </g>
        <g
           id="g1224"
           transform="translate(296.8639,279.3262)">
          <path
             d="M 0,0 C -1.086,-0.93 -2.366,-1.69 -3.621,-2.091 -2.14,-1.86 -0.798,-1.28 0.371,-0.304 0.258,-0.202 0.163,-0.053 0,0"
             style="fill:#231f20;fill-opacity:1;fill-rule:nonzero;stroke:none"
             id="path1226"
             inkscape:connector-curvature="0" />
        </g>
        <g
           id="g1228"
           transform="translate(298.9241,276.2917)">
          <path
             d="m 0,0 c -0.766,0.246 -0.617,1.079 -0.636,1.736 -0.243,0.17 -0.486,0.339 -0.729,0.475 L -1.966,1.748 -1.983,0.911 C -2.073,0.519 -2.391,0.214 -2.691,0.007 -1.896,-0.42 -0.73,-0.362 0,0"
             style="fill:#231f20;fill-opacity:1;fill-rule:nonzero;stroke:none"
             id="path1230"
             inkscape:connector-curvature="0" />
        </g>
        <g
           id="g1232"
           transform="translate(310.0336,308.2918)">
          <path
             d="M 0,0 C -0.167,0.178 -0.204,0.456 -0.142,0.687 -0.047,0.902 0.182,0.971 0.394,0.991 0.592,0.945 0.791,0.8 0.844,0.588 0.897,0.326 0.835,0.079 0.608,-0.056 0.413,-0.158 0.166,-0.145 0,0"
             style="fill:#231f20;fill-opacity:1;fill-rule:nonzero;stroke:none"
             id="path1234"
             inkscape:connector-curvature="0" />
        </g>
        <g
           id="g1236"
           transform="translate(312.5349,306.7888)">
          <path
             d="m 0,0 c -0.475,-0.106 -0.905,0.133 -1.189,0.457 -0.268,0.34 -0.276,0.865 -0.102,1.262 0.127,0.264 0.419,0.532 0.713,0.602 0.49,0.155 1.002,-0.05 1.319,-0.423 C 0.975,1.623 0.949,1.196 0.922,0.819 0.781,0.422 0.375,0.104 0,0"
             style="fill:#231f20;fill-opacity:1;fill-rule:nonzero;stroke:none"
             id="path1238"
             inkscape:connector-curvature="0" />
        </g>
        <g
           id="g1240"
           transform="translate(316.097,305.6303)">
          <path
             d="m 0,0 c 0.41,-1.027 -0.48,-1.845 -0.646,-2.767 -0.461,1.191 -0.972,2.364 -1.597,3.503 -0.104,0.343 -0.028,0.722 0.247,0.989 0.161,0.182 0.44,0.203 0.702,0.224 C -1.13,1.935 -0.997,1.855 -0.88,1.709 -0.529,1.304 -0.65,0.63 -0.774,0.185 -0.478,0.173 -0.184,0.243 0,0"
             style="fill:#231f20;fill-opacity:1;fill-rule:nonzero;stroke:none"
             id="path1242"
             inkscape:connector-curvature="0" />
        </g>
        <g
           id="g1244"
           transform="translate(314.3531,302.7808)">
          <path
             d="m 0,0 c -0.612,0.302 -1.528,0.156 -1.819,0.923 -0.12,0.293 0.123,0.527 0.168,0.774 -0.525,-0.025 -1.005,0.23 -1.225,0.703 -0.005,0.295 -0.043,0.639 0.233,0.824 0.322,0.382 0.979,0.343 1.328,0.07 0.87,-1.053 1.316,-2.293 1.746,-3.533 z"
             style="fill:#231f20;fill-opacity:1;fill-rule:nonzero;stroke:none"
             id="path1246"
             inkscape:connector-curvature="0" />
        </g>
        <g
           id="g1248"
           transform="translate(316.8586,303.1155)">
          <path
             d="m 0,0 c 0.101,-0.146 0.17,-0.342 0.09,-0.507 -0.08,-0.149 -0.159,-0.315 -0.355,-0.367 -0.228,-0.085 -0.411,0.059 -0.593,0.171 -0.151,0.195 -0.156,0.49 -0.012,0.689 C -0.66,0.268 -0.201,0.243 0,0"
             style="fill:#231f20;fill-opacity:1;fill-rule:nonzero;stroke:none"
             id="path1250"
             inkscape:connector-curvature="0" />
        </g>
        <g
           id="g1252"
           transform="translate(313.2219,301.6801)">
          <path
             d="M 0,0 C -0.068,0.163 -0.137,0.408 -0.025,0.574 0.103,0.789 0.38,0.908 0.643,0.863 0.891,0.768 0.976,0.54 1.013,0.295 0.984,0.048 0.823,-0.135 0.578,-0.204 0.332,-0.257 0.134,-0.162 0,0"
             style="fill:#231f20;fill-opacity:1;fill-rule:nonzero;stroke:none"
             id="path1254"
             inkscape:connector-curvature="0" />
        </g>
        <g
           id="g1256"
           transform="translate(316.6857,301.6031)">
          <path
             d="m 0,0 c 0.236,-0.407 0.343,-0.963 0.17,-1.425 -0.205,-0.512 -0.708,-0.881 -1.266,-0.906 -0.557,-0.041 -1.021,0.263 -1.339,0.668 -0.221,0.44 -0.296,1.046 -0.04,1.476 0.208,0.348 0.516,0.583 0.859,0.703 C -1.012,0.69 -0.401,0.486 0,0"
             style="fill:#231f20;fill-opacity:1;fill-rule:nonzero;stroke:none"
             id="path1258"
             inkscape:connector-curvature="0" />
        </g>
        <g
           id="g1260"
           transform="translate(314.8857,294.995)">
          <path
             d="m 0,0 c -0.241,0.751 -1.474,0.879 -1.259,1.818 0.046,0.198 0.241,0.316 0.387,0.432 -0.002,0.116 -0.117,0.163 -0.201,0.26 -0.201,0.26 -0.372,0.7 -0.164,1.031 0.145,0.183 0.306,0.382 0.534,0.451 0.36,0.105 0.674,-0.054 0.892,-0.33 C 0.717,2.391 0.233,0.857 0.155,-0.425 Z"
             style="fill:#231f20;fill-opacity:1;fill-rule:nonzero;stroke:none"
             id="path1262"
             inkscape:connector-curvature="0" />
        </g>
        <g
           id="g1264"
           transform="translate(317.4153,296.9382)">
          <path
             d="m 0,0 c 0.512,-1.256 -1.124,-1.56 -1.651,-2.504 -0.006,0.377 0.035,0.886 0.144,1.282 0.165,1.004 -0.083,2.165 0.395,3.026 0.195,0.134 0.406,0.285 0.686,0.257 C -0.228,1.982 0.02,1.887 0.154,1.676 0.338,1.449 0.294,1.088 0.2,0.824 0.238,0.529 -0.611,0.269 0,0"
             style="fill:#231f20;fill-opacity:1;fill-rule:nonzero;stroke:none"
             id="path1266"
             inkscape:connector-curvature="0" />
        </g>
        <g
           id="g1268"
           transform="translate(313.9673,293.9305)">
          <path
             d="M 0,0 C -0.148,0.047 -0.33,0.126 -0.415,0.288 -0.516,0.467 -0.487,0.714 -0.374,0.864 -0.23,1.079 0.063,1.182 0.311,1.12 0.592,0.994 0.629,0.683 0.618,0.386 0.506,0.138 0.263,0.004 0,0"
             style="fill:#231f20;fill-opacity:1;fill-rule:nonzero;stroke:none"
             id="path1270"
             inkscape:connector-curvature="0" />
        </g>
        <g
           id="g1272"
           transform="translate(316.8962,293.4182)">
          <path
             d="m 0,0 c -0.179,-0.117 -0.375,-0.153 -0.574,-0.058 -0.231,0.128 -0.301,0.422 -0.24,0.685 0.064,0.116 0.176,0.266 0.307,0.301 0.163,0.052 0.328,0.005 0.476,-0.026 C 0.086,0.789 0.22,0.643 0.222,0.463 0.192,0.299 0.179,0.101 0,0"
             style="fill:#231f20;fill-opacity:1;fill-rule:nonzero;stroke:none"
             id="path1274"
             inkscape:connector-curvature="0" />
        </g>
        <g
           id="g1276"
           transform="translate(314.8658,291.0561)">
          <path
             d="m 0,0 c -0.557,-0.025 -1.104,0.295 -1.358,0.783 -0.203,0.391 -0.129,0.95 0.061,1.33 0.16,0.282 0.451,0.565 0.761,0.635 C 0.003,2.921 0.58,2.75 0.947,2.362 1.33,2.007 1.406,1.352 1.233,0.873 1.028,0.345 0.524,0.074 0,0"
             style="fill:#231f20;fill-opacity:1;fill-rule:nonzero;stroke:none"
             id="path1278"
             inkscape:connector-curvature="0" />
        </g>
        <g
           id="g1280"
           transform="translate(311.4278,289.5094)">
          <path
             d="M 0,0 C 0.11,0.281 0.373,0.285 0.584,0.436 0.448,0.729 0.458,1.172 0.6,1.47 0.89,1.868 1.563,1.813 1.831,1.456 2.031,1.263 2.037,0.934 1.992,0.671 1.582,-0.435 1.058,-1.542 0.219,-2.459 0.32,-1.587 -0.2,-0.84 0,0"
             style="fill:#231f20;fill-opacity:1;fill-rule:nonzero;stroke:none"
             id="path1282"
             inkscape:connector-curvature="0" />
        </g>
        <g
           id="g1284"
           transform="translate(314.928,288.137)">
          <path
             d="m 0,0 c 0.102,-0.212 0.023,-0.46 -0.138,-0.626 -0.764,-0.455 -1.749,-0.438 -2.53,-0.828 0.385,0.516 0.788,1.014 1.074,1.593 0.417,0.63 0.517,1.55 1.267,1.907 C -0.051,2.181 0.215,2.005 0.446,1.91 0.663,1.668 0.881,1.375 0.722,1.045 0.515,0.664 0.158,0.38 -0.284,0.34 -0.216,0.177 -0.035,0.163 0,0"
             style="fill:#231f20;fill-opacity:1;fill-rule:nonzero;stroke:none"
             id="path1286"
             inkscape:connector-curvature="0" />
        </g>
        <g
           id="g1288"
           transform="translate(310.7671,286.644)">
          <path
             d="m 0,0 c -0.212,-0.085 -0.459,-0.056 -0.625,0.105 -0.118,0.162 -0.186,0.39 -0.108,0.589 0.144,0.264 0.486,0.401 0.751,0.291 C 0.183,0.889 0.349,0.793 0.336,0.579 0.34,0.317 0.178,0.134 0,0"
             style="fill:#231f20;fill-opacity:1;fill-rule:nonzero;stroke:none"
             id="path1290"
             inkscape:connector-curvature="0" />
        </g>
        <g
           id="g1292"
           transform="translate(312.3325,285.1917)">
          <path
             d="M 0,0 C -0.229,-0.053 -0.412,0.125 -0.53,0.287 -0.582,0.5 -0.62,0.794 -0.425,0.961 -0.279,1.062 -0.133,1.146 0.064,1.117 0.229,1.087 0.362,0.974 0.479,0.877 0.546,0.731 0.632,0.519 0.519,0.386 0.424,0.187 0.23,0.004 0,0"
             style="fill:#231f20;fill-opacity:1;fill-rule:nonzero;stroke:none"
             id="path1294"
             inkscape:connector-curvature="0" />
        </g>
        <g
           id="g1296"
           transform="translate(309.6997,283.5751)">
          <path
             d="m 0,0 c -0.347,0.175 -0.697,0.481 -0.818,0.89 -0.055,0.344 -0.028,0.754 0.18,1.053 0.353,0.53 1.056,0.722 1.634,0.468 C 1.408,2.27 1.645,1.815 1.75,1.422 1.822,1.013 1.647,0.666 1.438,0.351 1.084,-0.065 0.543,-0.123 0,0"
             style="fill:#231f20;fill-opacity:1;fill-rule:nonzero;stroke:none"
             id="path1298"
             inkscape:connector-curvature="0" />
        </g>
        <g
           id="g1300"
           transform="translate(306.3952,282.9326)">
          <path
             d="m 0,0 c -0.569,-0.354 -1.105,-0.69 -1.642,-0.978 0.449,0.631 0.272,1.498 0.705,2.128 0.258,0.283 0.601,0.371 0.979,0.361 0.127,0.231 0.14,0.494 0.317,0.71 0.175,0.331 0.5,0.5 0.896,0.44 C 1.486,2.567 1.719,2.373 1.788,2.145 2.052,1.017 0.747,0.488 0,0"
             style="fill:#231f20;fill-opacity:1;fill-rule:nonzero;stroke:none"
             id="path1302"
             inkscape:connector-curvature="0" />
        </g>
        <g
           id="g1304"
           transform="translate(307.6744,280.8852)">
          <path
             d="m 0,0 c -0.95,-0.113 -1.667,0.581 -2.503,0.568 0.422,0.269 0.976,0.557 1.463,0.876 0.732,0.405 1.362,1.039 2.247,1.118 C 1.536,2.518 1.786,2.293 1.97,2.016 2.039,1.82 2.093,1.493 1.932,1.31 1.643,0.895 1.068,0.919 0.609,0.895 0.566,0.518 0.375,0.137 0,0"
             style="fill:#231f20;fill-opacity:1;fill-rule:nonzero;stroke:none"
             id="path1306"
             inkscape:connector-curvature="0" />
        </g>
        <g
           id="g1308"
           transform="translate(303.3737,282.0151)">
          <path
             d="M 0,0 C -0.117,0.146 -0.12,0.359 -0.09,0.557 0.004,0.854 0.297,0.973 0.592,0.977 0.757,0.931 0.922,0.868 1.006,0.705 1.092,0.526 1.128,0.297 1.065,0.115 0.985,-0.034 0.84,-0.151 0.693,-0.219 0.416,-0.321 0.184,-0.194 0,0"
             style="fill:#231f20;fill-opacity:1;fill-rule:nonzero;stroke:none"
             id="path1310"
             inkscape:connector-curvature="0" />
        </g>
        <g
           id="g1312"
           transform="translate(303.4064,279.932)">
          <path
             d="m 0,0 c -0.259,-0.218 -0.651,-0.289 -0.981,-0.179 -0.281,0.11 -0.547,0.335 -0.683,0.629 -0.169,0.325 -0.11,0.72 0.066,1.035 0.256,0.397 0.744,0.651 1.222,0.511 C 0.004,1.871 0.32,1.613 0.424,1.221 0.546,0.731 0.39,0.253 0,0"
             style="fill:#231f20;fill-opacity:1;fill-rule:nonzero;stroke:none"
             id="path1314"
             inkscape:connector-curvature="0" />
        </g>
        <g
           id="g1316"
           transform="translate(305.5785,280.6058)">
          <path
             d="m 0,0 c 0.036,-0.229 -0.091,-0.461 -0.269,-0.627 -0.18,-0.02 -0.342,-0.154 -0.525,-0.041 -0.197,0.012 -0.331,0.208 -0.383,0.387 -0.069,0.245 0.009,0.476 0.17,0.643 0.163,0.134 0.359,0.153 0.588,0.157 C -0.22,0.44 0.013,0.23 0,0"
             style="fill:#231f20;fill-opacity:1;fill-rule:nonzero;stroke:none"
             id="path1318"
             inkscape:connector-curvature="0" />
        </g>
        <g
           id="g1320"
           transform="translate(307.6354,314.3953)">
          <path
             d="m 0,0 c -0.36,-0.073 -0.737,-0.081 -1.085,0.059 -0.965,0.62 -1.993,1.14 -2.988,1.661 l 0.719,0.13 C -2.102,1.597 -1.015,0.668 0,0"
             style="fill:#231f20;fill-opacity:1;fill-rule:nonzero;stroke:none"
             id="path1322"
             inkscape:connector-curvature="0" />
        </g>
        <g
           id="g1324"
           transform="translate(304.3759,314.0973)">
          <path
             d="m 0,0 c -0.73,0.378 -1.445,0.823 -2.126,1.252 0.245,0.021 0.421,0.222 0.701,0.162 C -0.465,1.04 0.48,0.601 1.297,-0.055 0.873,-0.162 0.414,-0.172 0,0"
             style="fill:#231f20;fill-opacity:1;fill-rule:nonzero;stroke:none"
             id="path1326"
             inkscape:connector-curvature="0" />
        </g>
        <g
           id="g1328"
           transform="translate(303.6138,313.6547)">
          <path
             d="M 0,0 C -1.142,-0.319 -2.013,0.499 -2.828,1.04 -1.67,1.393 -0.815,0.508 0,0"
             style="fill:#231f20;fill-opacity:1;fill-rule:nonzero;stroke:none"
             id="path1330"
             inkscape:connector-curvature="0" />
        </g>
        <g
           id="g1332"
           transform="translate(301.7162,313.3852)">
          <path
             d="M 0,0 C -0.963,-0.283 -1.764,0.357 -2.415,0.885 -1.421,1.217 -0.732,0.444 0,0"
             style="fill:#231f20;fill-opacity:1;fill-rule:nonzero;stroke:none"
             id="path1334"
             inkscape:connector-curvature="0" />
        </g>
        <g
           id="g1336"
           transform="translate(308.9158,313.5852)">
          <path
             d="m 0,0 c 1.201,-0.943 2.385,-1.854 3.491,-2.947 -0.458,-0.058 -0.952,0.03 -1.287,0.351 -1.169,0.96 -2.422,2.05 -3.638,2.861 C -0.926,0.325 -0.384,0.32 0,0"
             style="fill:#231f20;fill-opacity:1;fill-rule:nonzero;stroke:none"
             id="path1338"
             inkscape:connector-curvature="0" />
        </g>
        <g
           id="g1340"
           transform="translate(300.1334,312.9417)">
          <path
             d="M 0,0 C -0.229,-0.021 -0.524,-0.06 -0.74,0.034 -1.02,0.126 -1.174,0.418 -1.148,0.731 -0.749,0.493 -0.383,0.254 0,0"
             style="fill:#231f20;fill-opacity:1;fill-rule:nonzero;stroke:none"
             id="path1342"
             inkscape:connector-curvature="0" />
        </g>
        <g
           id="g1344"
           transform="translate(308.805,311.827)">
          <path
             d="M 0,0 C -0.327,-0.056 -0.753,-0.098 -1.066,-0.006 -1.863,0.404 -2.681,1.06 -3.381,1.586 -1.963,2.059 -1.078,0.552 0,0"
             style="fill:#231f20;fill-opacity:1;fill-rule:nonzero;stroke:none"
             id="path1346"
             inkscape:connector-curvature="0" />
        </g>
        <g
           id="g1348"
           transform="translate(306.0973,311.8358)">
          <path
             d="m 0,0 -0.295,-0.039 c -1.013,-0.218 -1.672,0.703 -2.387,1.181 l 0.786,0.033 C -1.106,1.076 -0.632,0.397 0,0"
             style="fill:#231f20;fill-opacity:1;fill-rule:nonzero;stroke:none"
             id="path1350"
             inkscape:connector-curvature="0" />
        </g>
        <g
           id="g1352"
           transform="translate(302.0057,312.8661)">
          <path
             d="M 0,0 C 0.72,0.081 1.176,-0.501 1.709,-0.883 0.844,-1.115 0.078,-0.589 -0.541,-0.028 -0.344,-0.056 -0.197,0.012 0,0"
             style="fill:#231f20;fill-opacity:1;fill-rule:nonzero;stroke:none"
             id="path1354"
             inkscape:connector-curvature="0" />
        </g>
        <g
           id="g1356"
           transform="translate(299.8318,312.4431)">
          <path
             d="M 0,0 C 0.668,0.227 1.297,-0.038 1.782,-0.471 1.117,-0.847 0.499,-0.301 0,0"
             style="fill:#231f20;fill-opacity:1;fill-rule:nonzero;stroke:none"
             id="path1358"
             inkscape:connector-curvature="0" />
        </g>
        <g
           id="g1360"
           transform="translate(296.6063,298.2478)">
          <path
             d="m 0,0 c -0.422,0.222 -0.843,0.51 -1.282,0.7 -1.567,-1.182 -2.212,-3.006 -1.991,-4.98 0.183,-1.431 1.168,-2.979 2.585,-3.501 0.007,0.345 0.226,0.619 0.249,0.931 -1.005,0.611 -1.523,1.689 -1.648,2.791 C -2.249,-2.365 -1.366,-0.972 0,0"
             style="fill:#231f20;fill-opacity:1;fill-rule:nonzero;stroke:none"
             id="path1362"
             inkscape:connector-curvature="0" />
        </g>
        <g
           id="g1364"
           transform="translate(298.4284,291.9903)">
          <path
             d="M 0,0 0.041,5.119 C -0.457,5.605 -1.107,5.898 -1.725,6.206 L -1.641,0.018 C -1.145,0.188 -0.506,0.158 0,0"
             style="fill:#231f20;fill-opacity:1;fill-rule:nonzero;stroke:none"
             id="path1366"
             inkscape:connector-curvature="0" />
        </g>
        <g
           id="g1368"
           transform="translate(300.4593,308.8521)">
          <path
             d="M 0,0 C 0.093,0.116 0.18,0.205 0.255,0.232 0.838,0.297 1.117,0.112 1.538,-0.021 1.072,-0.243 0.487,-0.313 0,0 m 0.25,-7.164 c -0.735,-0.497 -1.402,-0.862 -2.201,-1.24 l -0.032,0.032 0.116,10.896 -0.043,2.8 C -2.57,5.223 -3.229,5.286 -3.905,5.316 l -0.067,-0.03 -0.01,-2.982 0.139,-9.68 0.03,-0.181 c 1.098,-0.403 2.104,-1.05 3.099,-1.664 0.982,0.507 2.016,1.061 2.919,1.735 1.492,1.124 2.465,2.735 2.192,4.668 -0.108,1.14 -1.112,2.002 -2.04,2.534 0.235,0.191 0.5,0.301 0.719,0.511 L 3.078,0.293 C 1.988,0.151 1.091,0.68 0.068,0.603 -0.196,0.576 -0.35,0.332 -0.436,0.119 -0.717,0.091 -0.999,0.081 -1.215,-0.08 c -0.287,-0.24 -0.393,-0.551 -0.399,-0.897 0.332,0.108 0.711,0.117 1.055,0.011 0.195,-0.153 0.422,-0.355 0.433,-0.636 0.011,-0.214 -0.093,-0.377 -0.258,-0.504 -0.102,-0.115 -0.382,-0.076 -0.336,-0.258 0.243,-0.236 0.585,-0.391 0.934,-0.267 0.299,0.108 0.519,0.385 0.607,0.68 0.284,0.092 0.524,-0.127 0.805,-0.182 C 2.294,-2.494 2.642,-3.226 2.66,-3.95 2.661,-5.435 1.403,-6.463 0.25,-7.164"
             style="fill:#231f20;fill-opacity:1;fill-rule:nonzero;stroke:none"
             id="path1370"
             inkscape:connector-curvature="0" />
        </g>
        <g
           id="g1372"
           transform="translate(293.0479,308.8208)">
          <path
             d="M 0,0 C 0.429,0.106 0.875,0.362 1.351,0.252 L 1.549,0.032 C 0.849,-0.264 0.471,-0.225 0,0 M 2.123,-0.885 C 2.407,-0.726 2.85,-0.819 3.145,-0.907 3.167,-0.594 3.026,-0.311 2.832,-0.093 2.575,0.258 1.992,-0.025 1.837,0.406 1.661,0.674 1.349,0.714 1.019,0.704 0.19,0.491 -0.64,0.26 -1.561,0.279 c 0.193,-0.236 0.503,-0.372 0.729,-0.576 -0.118,-0.095 -0.267,-0.142 -0.383,-0.223 -1.201,-0.7 -1.788,-1.956 -1.62,-3.345 0.376,-3.238 3.879,-4.466 6.208,-5.833 1.562,-0.922 3.67,-1.84 4.073,-3.86 0.363,-1.457 -0.032,-3.065 -1.238,-4.011 0.159,-0.285 0.283,-0.585 0.393,-0.884 0.651,0.416 1.357,1.028 1.669,1.746 0.872,1.531 0.606,3.795 -0.304,5.216 -2.037,2.696 -5.371,3.21 -7.816,5.257 -0.794,0.759 -1.433,1.728 -1.127,2.875 0.16,0.672 0.701,1.304 1.397,1.438 0.532,0.252 0.353,-0.452 0.729,-0.575 0.228,-0.104 0.575,-0.145 0.823,-0.05 0.134,0.077 0.285,0.174 0.32,0.355 l -0.179,0.053 c -0.196,0.12 -0.472,0.29 -0.449,0.569 0.006,0.281 0.225,0.54 0.459,0.684"
             style="fill:#231f20;fill-opacity:1;fill-rule:nonzero;stroke:none"
             id="path1374"
             inkscape:connector-curvature="0" />
        </g>
        <g
           id="g1376"
           transform="translate(268.6465,301.2194)">
          <path
             d="m 0,0 0.358,-0.662 c -0.214,-0.112 -0.356,-0.222 -0.424,-0.329 -0.077,-0.112 -0.12,-0.257 -0.127,-0.438 -0.008,-0.221 0.047,-0.407 0.167,-0.558 0.118,-0.151 0.27,-0.23 0.457,-0.237 0.258,-0.01 0.473,0.173 0.646,0.55 l 0.236,0.519 c 0.19,0.422 0.414,0.727 0.672,0.916 0.257,0.188 0.568,0.275 0.93,0.261 C 3.402,0.003 3.797,-0.174 4.102,-0.51 4.409,-0.849 4.552,-1.26 4.534,-1.744 4.516,-2.203 4.365,-2.576 4.081,-2.864 3.798,-3.148 3.408,-3.317 2.913,-3.371 l -0.147,0.815 c 0.312,0.024 0.529,0.08 0.651,0.166 0.235,0.156 0.358,0.391 0.37,0.706 0.01,0.249 -0.065,0.458 -0.225,0.629 -0.16,0.171 -0.368,0.261 -0.624,0.271 C 2.836,-0.78 2.741,-0.79 2.654,-0.816 2.568,-0.841 2.487,-0.882 2.413,-0.94 2.339,-0.997 2.268,-1.073 2.202,-1.166 2.135,-1.259 2.071,-1.371 2.009,-1.501 L 1.777,-2.002 c -0.334,-0.71 -0.795,-1.054 -1.384,-1.031 -0.397,0.015 -0.723,0.18 -0.978,0.493 -0.258,0.313 -0.377,0.696 -0.36,1.148 C -0.921,-0.783 -0.606,-0.319 0,0"
             style="fill:#231f20;fill-opacity:1;fill-rule:nonzero;stroke:none"
             id="path1378"
             inkscape:connector-curvature="0" />
        </g>
        <g
           id="g1380"
           transform="translate(269.2004,304.7823)">
          <path
             d="m 0,0 4.447,-0.908 -0.159,-0.78 -4.447,0.908 -0.244,-1.191 -0.734,0.15 0.645,3.159 0.735,-0.15 z"
             style="fill:#231f20;fill-opacity:1;fill-rule:nonzero;stroke:none"
             id="path1382"
             inkscape:connector-curvature="0" />
        </g>
        <g
           id="g1384"
           transform="translate(271.79,307.3501)">
          <path
             d="M 0,0 C 0.538,-0.227 1.056,-0.232 1.555,-0.017 2.054,0.197 2.402,0.539 2.601,1.01 2.816,1.521 2.822,2.026 2.617,2.526 2.408,3.028 2.047,3.387 1.535,3.603 1.016,3.822 0.508,3.832 0.011,3.633 -0.488,3.437 -0.844,3.084 -1.059,2.576 -1.272,2.069 -1.277,1.566 -1.071,1.069 -0.87,0.572 -0.513,0.216 0,0 M -0.321,-0.738 C -1.007,-0.449 -1.49,0.051 -1.77,0.761 -2.051,1.469 -2.043,2.175 -1.747,2.877 -1.455,3.571 -0.955,4.061 -0.25,4.348 0.457,4.638 1.159,4.635 1.855,4.341 2.556,4.046 3.044,3.545 3.322,2.839 3.6,2.129 3.589,1.419 3.289,0.708 3.024,0.08 2.568,-0.393 1.921,-0.71 1.207,-1.058 0.46,-1.067 -0.321,-0.738"
             style="fill:#231f20;fill-opacity:1;fill-rule:nonzero;stroke:none"
             id="path1386"
             inkscape:connector-curvature="0" />
        </g>
        <g
           id="g1388"
           transform="translate(274.8593,317.5464)">
          <path
             d="M 0,0 0.765,-0.552 C 0.183,-0.701 -0.253,-0.975 -0.542,-1.375 -0.86,-1.816 -0.969,-2.302 -0.87,-2.832 -0.773,-3.364 -0.497,-3.794 -0.041,-4.123 0.41,-4.448 0.9,-4.57 1.428,-4.49 c 0.529,0.081 0.953,0.341 1.271,0.782 0.164,0.228 0.267,0.448 0.307,0.661 0.027,0.116 0.044,0.244 0.05,0.385 0.006,0.14 0.002,0.296 -0.011,0.465 L 3.828,-2.761 C 3.77,-3.283 3.595,-3.748 3.301,-4.155 2.859,-4.768 2.267,-5.137 1.526,-5.262 c -0.744,-0.121 -1.421,0.038 -2.031,0.478 -0.547,0.394 -0.904,0.927 -1.071,1.599 -0.204,0.823 -0.051,1.588 0.458,2.293 C -0.84,-0.506 -0.467,-0.209 0,0"
             style="fill:#231f20;fill-opacity:1;fill-rule:nonzero;stroke:none"
             id="path1390"
             inkscape:connector-curvature="0" />
        </g>
        <g
           id="g1392"
           transform="translate(278.3756,318.5529)">
          <path
             d="M 0,0 0.113,2.945 0.903,3.659 0.735,0.28 4.459,-0.255 3.666,-0.972 0.676,-0.503 0.664,-0.735 2.131,-2.359 1.54,-2.892 -2.005,1.031 -1.414,1.565 Z"
             style="fill:#231f20;fill-opacity:1;fill-rule:nonzero;stroke:none"
             id="path1394"
             inkscape:connector-curvature="0" />
        </g>
        <g
           id="g1396"
           transform="translate(282.9044,322.1502)">
          <path
             d="M 0,0 1.983,1.132 0.958,2.929 1.65,3.323 4.27,-1.267 3.578,-1.662 2.355,0.48 0.372,-0.652 1.595,-2.794 0.903,-3.189 l -2.62,4.591 0.691,0.394 z"
             style="fill:#231f20;fill-opacity:1;fill-rule:nonzero;stroke:none"
             id="path1398"
             inkscape:connector-curvature="0" />
        </g>
        <g
           id="g1400"
           transform="translate(288.0238,324.1254)">
          <path
             d="M 0,0 C 0.167,-0.561 0.493,-0.966 0.978,-1.215 1.46,-1.465 1.947,-1.516 2.437,-1.37 2.97,-1.212 3.364,-0.894 3.62,-0.416 3.875,0.065 3.923,0.573 3.764,1.108 3.603,1.649 3.286,2.048 2.816,2.306 2.347,2.567 1.847,2.619 1.317,2.461 0.789,2.303 0.398,1.986 0.144,1.51 -0.111,1.038 -0.159,0.534 0,0 M -0.773,-0.221 C -0.986,0.492 -0.907,1.183 -0.536,1.852 -0.168,2.519 0.382,2.962 1.113,3.18 1.836,3.395 2.532,3.322 3.203,2.959 3.876,2.597 4.321,2.054 4.537,1.329 4.754,0.6 4.678,-0.096 4.308,-0.759 3.937,-1.425 3.381,-1.869 2.641,-2.089 1.986,-2.284 1.331,-2.233 0.675,-1.935 c -0.723,0.33 -1.206,0.901 -1.448,1.714"
             style="fill:#231f20;fill-opacity:1;fill-rule:nonzero;stroke:none"
             id="path1402"
             inkscape:connector-curvature="0" />
        </g>
        <g
           id="g1404"
           transform="translate(294.7033,328.2971)">
          <path
             d="M 0,0 0.431,-4.517 1.979,-4.37 2.05,-5.117 -0.292,-5.34 -0.794,-0.076 Z"
             style="fill:#231f20;fill-opacity:1;fill-rule:nonzero;stroke:none"
             id="path1406"
             inkscape:connector-curvature="0" />
        </g>
        <g
           id="g1408"
           transform="translate(297.9667,323.3249)">
          <path
             d="M 0,0 1.842,5.494 3.108,1.182 5.507,5.014 5.76,-0.755 4.948,-0.648 4.857,2.583 2.859,-0.618 1.797,2.988 0.819,-0.107 Z"
             style="fill:#231f20;fill-opacity:1;fill-rule:nonzero;stroke:none"
             id="path1410"
             inkscape:connector-curvature="0" />
        </g>
        <g
           id="g1412"
           transform="translate(312.0437,323.9279)">
          <path
             d="M 0,0 -0.75,-0.056 C -0.765,0.186 -0.808,0.36 -0.877,0.466 -0.947,0.582 -1.063,0.68 -1.224,0.76 -1.423,0.859 -1.615,0.884 -1.802,0.837 -1.988,0.791 -2.123,0.684 -2.206,0.516 -2.321,0.284 -2.241,0.013 -1.968,-0.299 l 0.377,-0.428 c 0.307,-0.347 0.494,-0.676 0.561,-0.989 0.067,-0.313 0.019,-0.632 -0.142,-0.958 -0.216,-0.436 -0.54,-0.725 -0.971,-0.866 -0.434,-0.142 -0.869,-0.105 -1.302,0.11 -0.411,0.204 -0.69,0.494 -0.837,0.871 -0.143,0.375 -0.138,0.8 0.016,1.274 l 0.803,-0.2 C -3.568,-1.779 -3.606,-2 -3.577,-2.147 c 0.046,-0.277 0.21,-0.486 0.492,-0.626 0.223,-0.111 0.445,-0.128 0.667,-0.052 0.221,0.077 0.389,0.229 0.502,0.459 0.046,0.092 0.075,0.182 0.087,0.272 0.013,0.089 0.008,0.18 -0.014,0.271 -0.023,0.091 -0.063,0.187 -0.121,0.286 -0.059,0.099 -0.135,0.203 -0.228,0.313 l -0.363,0.418 c -0.515,0.596 -0.641,1.158 -0.379,1.686 0.177,0.356 0.461,0.586 0.852,0.69 0.393,0.106 0.791,0.059 1.196,-0.142 C -0.34,1.157 -0.045,0.681 0,0"
             style="fill:#231f20;fill-opacity:1;fill-rule:nonzero;stroke:none"
             id="path1414"
             inkscape:connector-curvature="0" />
        </g>
        <g
           id="g1416"
           transform="translate(317.1884,320.9282)">
          <path
             d="m 0,0 -0.568,-0.752 c -0.135,0.586 -0.4,1.028 -0.793,1.325 -0.433,0.328 -0.916,0.448 -1.449,0.361 -0.532,-0.085 -0.968,-0.351 -1.307,-0.799 -0.335,-0.443 -0.468,-0.929 -0.399,-1.459 0.069,-0.53 0.32,-0.959 0.753,-1.287 0.224,-0.169 0.442,-0.276 0.654,-0.322 0.114,-0.029 0.243,-0.049 0.383,-0.058 0.141,-0.009 0.296,-0.009 0.466,0 l -0.581,-0.768 c -0.52,0.07 -0.98,0.256 -1.38,0.558 -0.603,0.456 -0.959,1.055 -1.067,1.798 -0.105,0.745 0.07,1.417 0.522,2.016 C -4.36,1.15 -3.82,1.494 -3.147,1.646 -2.32,1.83 -1.56,1.661 -0.866,1.136 -0.488,0.85 -0.199,0.471 0,0"
             style="fill:#231f20;fill-opacity:1;fill-rule:nonzero;stroke:none"
             id="path1418"
             inkscape:connector-curvature="0" />
        </g>
        <g
           id="g1420"
           transform="translate(318.0755,317.5211)">
          <path
             d="m 0,0 1.483,-1.731 1.572,1.346 0.521,-0.608 -4.02,-3.443 -0.521,0.608 1.876,1.607 -1.483,1.731 -1.876,-1.607 -0.521,0.608 4.02,3.443 0.52,-0.608 z"
             style="fill:#231f20;fill-opacity:1;fill-rule:nonzero;stroke:none"
             id="path1422"
             inkscape:connector-curvature="0" />
        </g>
        <g
           id="g1424"
           transform="translate(320.9322,312.9303)">
          <path
             d="m 0,0 c -0.517,-0.271 -0.852,-0.668 -1.002,-1.191 -0.152,-0.52 -0.11,-1.006 0.128,-1.458 0.257,-0.491 0.644,-0.816 1.161,-0.975 0.52,-0.157 1.027,-0.106 1.52,0.153 0.498,0.262 0.829,0.648 0.992,1.158 0.165,0.509 0.12,1.008 -0.137,1.497 C 2.407,-0.33 2.021,-0.008 1.506,0.149 0.995,0.308 0.493,0.259 0,0 M -0.368,0.718 C 0.292,1.064 0.984,1.12 1.711,0.885 2.437,0.652 2.977,0.198 3.331,-0.477 3.681,-1.144 3.743,-1.841 3.516,-2.569 3.291,-3.298 2.843,-3.838 2.174,-4.19 1.501,-4.543 0.804,-4.602 0.082,-4.367 c -0.724,0.236 -1.266,0.695 -1.625,1.378 -0.317,0.605 -0.392,1.257 -0.227,1.958 0.185,0.773 0.653,1.356 1.402,1.749"
             style="fill:#231f20;fill-opacity:1;fill-rule:nonzero;stroke:none"
             id="path1426"
             inkscape:connector-curvature="0" />
        </g>
        <g
           id="g1428"
           transform="translate(323.786,306.6867)">
          <path
             d="m 0,0 c -0.568,-0.134 -0.99,-0.435 -1.266,-0.903 -0.277,-0.467 -0.356,-0.949 -0.239,-1.447 0.127,-0.54 0.421,-0.952 0.881,-1.235 0.464,-0.283 0.967,-0.36 1.508,-0.233 0.548,0.129 0.965,0.421 1.249,0.875 0.287,0.452 0.367,0.947 0.24,1.485 C 2.247,-0.922 1.954,-0.514 1.495,-0.232 1.04,0.05 0.541,0.127 0,0 M -0.176,0.786 C 0.548,0.957 1.232,0.838 1.878,0.428 2.522,0.022 2.931,-0.553 3.106,-1.296 3.279,-2.03 3.165,-2.721 2.764,-3.369 c -0.4,-0.65 -0.968,-1.062 -1.703,-1.235 -0.74,-0.174 -1.43,-0.057 -2.07,0.35 -0.642,0.41 -1.052,0.991 -1.229,1.742 -0.157,0.665 -0.067,1.316 0.268,1.954 0.372,0.702 0.97,1.15 1.794,1.344"
             style="fill:#231f20;fill-opacity:1;fill-rule:nonzero;stroke:none"
             id="path1430"
             inkscape:connector-curvature="0" />
        </g>
        <g
           id="g1432"
           transform="translate(327.5756,299.3137)">
          <path
             d="m 0,0 -4.535,-0.095 0.033,-1.554 -0.749,-0.015 -0.049,2.349 5.283,0.11 z"
             style="fill:#231f20;fill-opacity:1;fill-rule:nonzero;stroke:none"
             id="path1434"
             inkscape:connector-curvature="0" />
        </g>
        <g
           id="g1436"
           transform="translate(272.6354,286.0796)">
          <path
             d="m 0,0 c -0.505,-0.294 -0.822,-0.705 -0.951,-1.234 -0.129,-0.527 -0.065,-1.011 0.192,-1.453 0.278,-0.479 0.679,-0.787 1.203,-0.924 0.527,-0.134 1.031,-0.061 1.513,0.219 0.487,0.284 0.801,0.684 0.942,1.201 C 3.042,-1.675 2.975,-1.177 2.698,-0.7 2.421,-0.225 2.022,0.08 1.5,0.215 0.982,0.352 0.482,0.28 0,0 M -0.397,0.7 C 0.246,1.075 0.937,1.161 1.673,0.958 2.409,0.757 2.968,0.327 3.351,-0.332 3.73,-0.983 3.822,-1.677 3.626,-2.414 3.432,-3.152 3.008,-3.712 2.354,-4.092 1.697,-4.475 1.002,-4.565 0.271,-4.362 c -0.735,0.204 -1.296,0.64 -1.684,1.307 -0.343,0.59 -0.447,1.238 -0.311,1.946 0.151,0.78 0.594,1.383 1.327,1.809"
             style="fill:#231f20;fill-opacity:1;fill-rule:nonzero;stroke:none"
             id="path1438"
             inkscape:connector-curvature="0" />
        </g>
        <g
           id="g1440"
           transform="translate(279.1605,280.1515)">
          <path
             d="m 0,0 -1.218,1.384 -0.956,-0.841 1.175,-1.335 -0.562,-0.495 -1.175,1.335 -1.892,-1.665 -0.529,0.601 3.973,3.495 1.746,-1.985 z"
             style="fill:#231f20;fill-opacity:1;fill-rule:nonzero;stroke:none"
             id="path1442"
             inkscape:connector-curvature="0" />
        </g>
        <g
           id="g1444"
           transform="translate(284.7175,275.8434)">
          <path
             d="m 0,0 -1.769,1.168 -0.699,-1.057 1.718,-1.135 -0.415,-0.628 -1.717,1.135 -0.971,-1.471 1.769,-1.168 -0.415,-0.628 -2.435,1.608 2.913,4.412 2.436,-1.608 z"
             style="fill:#231f20;fill-opacity:1;fill-rule:nonzero;stroke:none"
             id="path1446"
             inkscape:connector-curvature="0" />
        </g>
        <g
           id="g1448"
           transform="translate(289.733,274.0748)">
          <path
             d="M 0,0 -0.365,-0.869 C -0.641,-0.335 -1.006,0.028 -1.46,0.219 -1.961,0.43 -2.459,0.427 -2.953,0.212 -3.449,-0.001 -3.805,-0.367 -4.023,-0.884 -4.238,-1.396 -4.247,-1.9 -4.05,-2.397 c 0.197,-0.496 0.546,-0.85 1.047,-1.061 0.259,-0.109 0.497,-0.159 0.713,-0.151 0.119,0 0.247,0.013 0.386,0.038 0.138,0.026 0.288,0.065 0.451,0.115 l -0.373,-0.888 c -0.521,-0.061 -1.014,0.006 -1.476,0.2 -0.697,0.293 -1.19,0.786 -1.477,1.479 -0.286,0.697 -0.283,1.392 0.008,2.084 0.261,0.621 0.699,1.087 1.315,1.4 C -2.7,1.202 -1.922,1.225 -1.12,0.888 -0.682,0.704 -0.309,0.408 0,0"
             style="fill:#231f20;fill-opacity:1;fill-rule:nonzero;stroke:none"
             id="path1450"
             inkscape:connector-curvature="0" />
        </g>
        <g
           id="g1452"
           transform="translate(290.9278,271.312)">
          <path
             d="m 0,0 c -0.101,-0.574 0.01,-1.08 0.332,-1.518 0.32,-0.437 0.731,-0.7 1.235,-0.788 0.546,-0.095 1.04,0.013 1.481,0.324 0.442,0.315 0.711,0.746 0.807,1.293 C 3.952,-0.135 3.847,0.362 3.542,0.801 3.239,1.243 2.816,1.511 2.272,1.606 1.73,1.701 1.24,1.592 0.801,1.281 0.363,0.974 0.096,0.547 0,0 M -0.792,0.147 C -0.664,0.88 -0.285,1.462 0.344,1.894 0.972,2.326 1.661,2.477 2.412,2.346 3.154,2.216 3.744,1.839 4.182,1.216 4.622,0.592 4.777,-0.092 4.647,-0.836 4.515,-1.584 4.137,-2.172 3.511,-2.6 2.881,-3.03 2.187,-3.178 1.427,-3.045 c -0.672,0.117 -1.236,0.456 -1.689,1.015 -0.499,0.618 -0.676,1.343 -0.53,2.177"
             style="fill:#231f20;fill-opacity:1;fill-rule:nonzero;stroke:none"
             id="path1454"
             inkscape:connector-curvature="0" />
        </g>
        <g
           id="g1456"
           transform="translate(297.3023,267.8122)">
          <path
             d="M 0,0 -0.361,5.637 3.745,1.857 3.51,5.524 4.306,5.575 4.665,-0.023 0.559,3.745 0.796,0.051 Z"
             style="fill:#231f20;fill-opacity:1;fill-rule:nonzero;stroke:none"
             id="path1458"
             inkscape:connector-curvature="0" />
        </g>
        <g
           id="g1460"
           transform="translate(304.049,271.2236)">
          <path
             d="m 0,0 c 0.172,-0.558 0.502,-0.959 0.988,-1.203 0.483,-0.245 0.969,-0.291 1.458,-0.141 0.53,0.164 0.92,0.485 1.171,0.964 0.25,0.483 0.292,0.99 0.128,1.522 C 3.579,1.68 3.26,2.076 2.788,2.329 2.317,2.585 1.818,2.631 1.291,2.468 0.765,2.306 0.378,1.986 0.129,1.508 -0.121,1.034 -0.164,0.532 0,0 M -0.773,-0.23 C -0.993,0.482 -0.921,1.173 -0.557,1.845 -0.195,2.516 0.35,2.964 1.079,3.189 1.799,3.411 2.495,3.344 3.17,2.988 3.846,2.633 4.295,2.094 4.518,1.372 4.743,0.645 4.674,-0.052 4.311,-0.718 3.946,-1.388 3.395,-1.837 2.658,-2.064 2.005,-2.266 1.35,-2.221 0.691,-1.929 -0.035,-1.606 -0.523,-1.04 -0.773,-0.23"
             style="fill:#231f20;fill-opacity:1;fill-rule:nonzero;stroke:none"
             id="path1462"
             inkscape:connector-curvature="0" />
        </g>
        <g
           id="g1464"
           transform="translate(310.9225,270.7606)">
          <path
             d="M 0,0 -1.982,5.443 1.694,2.861 1.183,7.351 4.975,2.998 4.273,2.576 2.189,5.046 2.623,1.294 -0.456,3.456 0.707,0.426 Z"
             style="fill:#231f20;fill-opacity:1;fill-rule:nonzero;stroke:none"
             id="path1466"
             inkscape:connector-curvature="0" />
        </g>
        <g
           id="g1468"
           transform="translate(314.6832,279.7828)">
          <path
             d="M 0,0 3.513,-3.958 2.915,-4.489 -0.598,-0.531 Z"
             style="fill:#231f20;fill-opacity:1;fill-rule:nonzero;stroke:none"
             id="path1470"
             inkscape:connector-curvature="0" />
        </g>
        <g
           id="g1472"
           transform="translate(318.692,283.7744)">
          <path
             d="m 0,0 0.721,-0.608 c -0.593,-0.104 -1.048,-0.344 -1.366,-0.721 -0.35,-0.416 -0.496,-0.891 -0.438,-1.428 0.055,-0.537 0.298,-0.986 0.728,-1.349 0.424,-0.358 0.903,-0.517 1.436,-0.477 0.533,0.04 0.975,0.268 1.325,0.684 0.182,0.214 0.3,0.426 0.357,0.635 0.036,0.113 0.062,0.24 0.079,0.38 0.016,0.14 0.024,0.295 0.025,0.465 L 3.603,-3.04 C 3.506,-3.556 3.296,-4.006 2.972,-4.39 2.484,-4.968 1.867,-5.29 1.119,-5.359 c -0.75,-0.064 -1.412,0.147 -1.986,0.631 -0.515,0.435 -0.83,0.992 -0.946,1.673 -0.14,0.835 0.07,1.585 0.631,2.25 0.307,0.363 0.7,0.632 1.182,0.805"
             style="fill:#231f20;fill-opacity:1;fill-rule:nonzero;stroke:none"
             id="path1474"
             inkscape:connector-curvature="0" />
        </g>
        <g
           id="g1476"
           transform="translate(321.2719,287.3657)">
          <path
             d="M 0,0 0.027,-0.752 C -0.216,-0.757 -0.391,-0.793 -0.5,-0.858 -0.618,-0.924 -0.721,-1.035 -0.807,-1.194 -0.913,-1.388 -0.946,-1.58 -0.905,-1.768 c 0.038,-0.187 0.139,-0.326 0.304,-0.415 0.227,-0.124 0.501,-0.056 0.823,0.205 l 0.441,0.359 c 0.358,0.293 0.693,0.466 1.008,0.52 0.314,0.055 0.631,-0.005 0.95,-0.179 C 3.049,-1.511 3.324,-1.846 3.448,-2.282 3.573,-2.721 3.52,-3.153 3.288,-3.578 3.068,-3.981 2.767,-4.248 2.384,-4.38 2.003,-4.507 1.579,-4.485 1.111,-4.313 l 0.23,0.794 c 0.29,-0.116 0.509,-0.163 0.657,-0.14 0.28,0.035 0.494,0.191 0.645,0.468 0.119,0.218 0.145,0.439 0.077,0.663 -0.067,0.224 -0.213,0.397 -0.438,0.52 -0.09,0.049 -0.179,0.081 -0.268,0.097 C 1.925,-1.895 1.835,-1.896 1.743,-1.915 1.651,-1.934 1.554,-1.97 1.453,-2.024 1.352,-2.078 1.245,-2.15 1.132,-2.238 L 0.701,-2.585 c -0.614,-0.488 -1.18,-0.592 -1.697,-0.31 -0.348,0.19 -0.567,0.483 -0.656,0.878 -0.09,0.396 -0.027,0.792 0.189,1.189 C -1.172,-0.293 -0.684,-0.017 0,0"
             style="fill:#231f20;fill-opacity:1;fill-rule:nonzero;stroke:none"
             id="path1478"
             inkscape:connector-curvature="0" />
        </g>
        <g
           id="g1480"
           transform="translate(270.7992,292.4245)">
          <path
             d="m 0,0 c 0,-0.385 -0.312,-0.698 -0.698,-0.698 -0.385,0 -0.697,0.313 -0.697,0.698 0,0.385 0.312,0.698 0.697,0.698 C -0.312,0.698 0,0.385 0,0"
             style="fill:#231f20;fill-opacity:1;fill-rule:nonzero;stroke:none"
             id="path1482"
             inkscape:connector-curvature="0" />
        </g>
        <g
           id="g1484"
           transform="translate(324.9927,292.4245)">
          <path
             d="m 0,0 c 0,-0.385 -0.313,-0.698 -0.698,-0.698 -0.385,0 -0.697,0.313 -0.697,0.698 0,0.385 0.312,0.698 0.697,0.698 C -0.313,0.698 0,0.385 0,0"
             style="fill:#231f20;fill-opacity:1;fill-rule:nonzero;stroke:none"
             id="path1486"
             inkscape:connector-curvature="0" />
        </g>
      </g>
    </g>
  </g>
</svg>
